<svg height="511pt" viewBox="1 -15 511.99999 511" width="511pt" xmlns="http://www.w3.org/2000/svg"><path d="m55.804688 160.03125 72.367187 47.027344-8.539063 13.144531-72.371093-47.03125zm0 0" fill="#2c92bf"/><path d="m281.023438 104.929688 67 21.761718-4.84375 14.90625-66.996094-21.757812zm0 0" fill="#2c92bf"/><path d="m457.902344 43.070312 10.945312 11.21875-78.167968 76.234376-10.941407-11.21875zm0 0" fill="#2c92bf"/><path d="m234.113281 117.1875 11.519531 10.628906-79.960937 86.621094-11.515625-10.632812zm0 0" fill="#2c92bf"/><g fill="#ff8e1d"><path d="m0 254.855469h63.199219v226.953125h-63.199219zm0 0"/><path d="m112.199219 327.785156h63.203125v154.023438h-63.203125zm0 0"/><path d="m224.398438 206.234375h63.203124v275.574219h-63.203124zm0 0"/><path d="m336.597656 242.699219h63.203125v239.109375h-63.203125zm0 0"/><path d="m448.800781 133.308594h63.199219v348.5h-63.199219zm0 0"/></g><path d="m63.203125 153.648438c0 17.453124-14.148437 31.601562-31.601563 31.601562-17.453124 0-31.601562-14.148438-31.601562-31.601562 0-17.453126 14.148438-31.601563 31.601562-31.601563 17.453126 0 31.601563 14.148437 31.601563 31.601563zm0 0" fill="#ff491f"/><path d="m512 32.101562c0 17.453126-14.148438 31.601563-31.601562 31.601563-17.453126 0-31.601563-14.148437-31.601563-31.601563 0-17.453124 14.148437-31.601562 31.601563-31.601562 17.453124 0 31.601562 14.148438 31.601562 31.601562zm0 0" fill="#ff491f"/><path d="m399.800781 141.496094c0 17.449218-14.148437 31.597656-31.601562 31.597656s-31.601563-14.148438-31.601563-31.597656c0-17.453125 14.148438-31.601563 31.601563-31.601563s31.601562 14.148438 31.601562 31.601563zm0 0" fill="#ff491f"/><path d="m287.601562 105.03125c0 17.449219-14.148437 31.597656-31.601562 31.597656s-31.601562-14.148437-31.601562-31.597656c0-17.453125 14.148437-31.601562 31.601562-31.601562s31.601562 14.148437 31.601562 31.601562zm0 0" fill="#ff491f"/><path d="m175.402344 226.578125c0 17.453125-14.148438 31.601563-31.601563 31.601563s-31.601562-14.148438-31.601562-31.601563 14.148437-31.601563 31.601562-31.601563 31.601563 14.148438 31.601563 31.601563zm0 0" fill="#ff491f"/></svg>