<svg viewBox="0 0 480.02557 480" xmlns="http://www.w3.org/2000/svg"><path d="m474.671875 232.453125-66.554687-23.289063c-26.558594-9.296874-55.746094-7.433593-80.910157 5.160157-25.160156 12.597656-44.144531 34.847656-52.617187 61.679687l-17.414063 55.144532-17.144531 12.855468v-115.160156c-.019531-15.347656 7.65625-29.6875 20.4375-38.183594l-8.878906-13.3125c-17.234375 11.464844-27.582032 30.796875-27.558594 51.496094v15.847656l-10.34375-10.34375-11.3125 11.3125 21.65625 21.65625v175.742188l-16-8v-16.457032c-.003906-40.242187-19.351562-78.035156-52-101.566406-32.652344-23.527344-74.621094-29.929687-112.800781-17.199218l-37.726563 12.574218c-3.285156 1.082032-5.503906 4.144532-5.503906 7.601563s2.21875 6.519531 5.503906 7.601562l8.566406 2.855469c41.0625 13.652344 79.378907 34.488281 113.160157 61.535156l67.800781 54.238282c.457031.320312.953125.589843 1.472656.800781l-.050781.105469 27.578125 13.800781v19.054687h16v-116l28.796875-21.601562-.085937-.109375c.328124-.191407.644531-.402344.945312-.632813 50.660156-50.496094 116.636719-82.765625 187.597656-91.753906l15.738282-1.964844c3.683593-.464844 6.5625-3.402344 6.957031-7.09375s-1.804688-7.167968-5.308594-8.394531zm0 0" fill="#3d7606"/><path d="m307.78125 67.753906-3.75-60.246094c-.238281-3.789062-3.105469-6.890624-6.867188-7.4257808-3.75-.5000002-7.347656 1.6757808-8.644531 5.2343748l-25.875 72.414063c-9.675781 27.050781-14.621093 55.566406-14.613281 84.296875v21.976562c0 3.234375 1.949219 6.152344 4.9375 7.390625 2.988281 1.234375 6.429688.550781 8.71875-1.734375 32.132812-32.144531 48.921875-76.539062 46.09375-121.90625zm0 0" fill="#5fa819"/><path d="m119.492188 106.050781-52.933594-17.597656c-2.734375-.914063-5.75-.285156-7.894532 1.644531-2.140624 1.933594-3.078124 4.867188-2.449218 7.683594l8.800781 39.695312c14.089844 64.769532 71.570313 110.851563 137.855469 110.527344h5.160156c4.417969 0 8-3.582031 8-8 .050781-60.789062-38.855469-114.769531-96.539062-133.953125zm0 0" fill="#5fa819"/><g fill="#589c17"><path d="m158.828125 212.804688c-30.65625-18.867188-55.785156-45.492188-72.855469-77.183594l-25.230468-46.875c-3.488282 1.503906-5.398438 5.292968-4.527344 8.992187l8.800781 39.695313c14.074219 64.789062 71.558594 110.890625 137.855469 110.570312h5.160156c1.820312-.03125 3.570312-.691406 4.957031-1.871094zm0 0"/><path d="m329.773438 269.601562c-16.855469 12.035157-30.179688 28.363282-38.589844 47.289063l-3.699219 8.320313c48.023437-41.164063 107.054687-67.351563 169.800781-75.320313l15.242188-1.886719h-75.3125c-24.183594-.007812-47.761719 7.546875-67.441406 21.597656zm0 0"/><path d="m204.222656 451.042969-.160156-.878907c-15.910156-87.515624-95.550781-148.734374-184.214844-141.601562l-3.722656.296875-10.621094 3.542969c-3.285156 1.082031-5.503906 4.144531-5.503906 7.601562 0 3.457032 2.21875 6.519532 5.503906 7.597656l8.566406 2.859376c41.0625 13.65625 79.378907 34.492187 113.160157 61.542968l67.800781 54.238282c.457031.320312.953125.589843 1.472656.800781l-.050781.105469zm0 0"/></g></svg>