<svg height="480pt" viewBox="-51 0 480 480.00096" width="480pt" xmlns="http://www.w3.org/2000/svg"><path d="m303.546875 173.828125c0-55.640625-45.328125-100.746094-101.238281-100.746094-55.914063 0-101.238282 45.105469-101.238282 100.746094s45.324219 100.75 101.238282 100.75c55.910156 0 101.238281-45.109375 101.238281-100.75zm0 0" fill="#fce575"/><path d="m100.632812 264.445312-21.699218 21.597657c-3.027344 3.015625-3.191406 8.121093-.015625 10.984375 1.414062 1.277344 3.195312 1.910156 4.984375 1.910156 1.898437 0 3.796875-.71875 5.25-2.164062l21.980468-21.875c2.847657-2.832032 2.777344-7.394532-.066406-10.230469-.050781-.046875-.097656-.09375-.144531-.144531-2.84375-2.839844-7.4375-2.914063-10.289063-.078126zm0 0" fill="#ffd551"/><path d="m143.304688 296.347656-11.699219 28.125c-1.53125 3.683594-.105469 8.101563 3.507812 9.820313 1.042969.496093 2.136719.730469 3.210938.730469 2.914062 0 5.679687-1.71875 6.863281-4.566407l11.835938-28.457031c1.546874-3.710938-.285157-7.90625-4.019532-9.429688-.0625-.023437-.125-.050781-.1875-.074218-3.714844-1.527344-7.972656.15625-9.511718 3.851562zm0 0" fill="#ffd551"/><g fill="#ffdf74"><path d="m202.308594 302.28125c-.027344 0-.058594 0-.085938 0-4.035156-.003906-7.339844 3.167969-7.339844 7.183594v30.507812c0 3.859375 2.835938 7.304688 6.695313 7.671875 4.429687.421875 8.15625-3.035156 8.15625-7.355469v-30.824218c0-4.015625-3.304687-7.1875-7.339844-7.183594-.027343 0-.058593 0-.085937 0zm0 0"/><path d="m251.816406 292.476562c-.0625.023438-.125.046876-.1875.074219-3.734375 1.523438-5.5625 5.71875-4.019531 9.429688l11.847656 28.476562c1.183594 2.847657 3.949219 4.566407 6.863281 4.566407 1.078126 0 2.179688-.238282 3.226563-.738282 3.605469-1.722656 5.019531-6.132812 3.492187-9.808594l-11.710937-28.148437c-1.539063-3.695313-5.796875-5.378906-9.511719-3.851563zm0 0"/><path d="m293.628906 264.578125c-.046875.046875-.09375.09375-.140625.144531-2.851562 2.832032-2.925781 7.394532-.078125 10.230469l21.917969 21.8125c1.449219 1.441406 3.351563 2.164063 5.25 2.164063 1.785156 0 3.570313-.636719 4.980469-1.910157 3.179687-2.863281 3.015625-7.96875-.015625-10.984375l-21.632813-21.53125c-2.84375-2.835937-7.433594-2.761718-10.28125.074219zm0 0"/><path d="m359.375 230.621094-28.300781-11.671875c-3.726563-1.535157-7.945313.285156-9.476563 3.996093-.023437.0625-.050781.125-.074218.1875-1.535157 3.699219.152343 7.9375 3.867187 9.46875l28.609375 11.800782c.925781.382812 1.890625.5625 2.839844.5625 3.109375 0 6.050781-1.957032 7.082031-5.15625 1.191406-3.710938-.929687-7.695313-4.546875-9.1875zm0 0"/><path d="m369.253906 166.457031h-30.644531c-4.035156 0-7.222656 3.289063-7.21875 7.300781v.074219.097657c-.003906 4.015624 3.183594 7.304687 7.21875 7.304687h30.964844c4.339843 0 7.8125-3.707031 7.390625-8.113281-.367188-3.84375-3.832032-6.664063-7.710938-6.664063zm0 0"/><path d="m363.960938 108.03125c-1.304688-4.230469-5.933594-6.335938-9.949219-4.683594l-28.589844 11.78125c-3.71875 1.53125-5.40625 5.765625-3.875 9.464844.027344.0625.050781.125.074219.1875 1.53125 3.714844 5.75 5.539062 9.476562 4l28.296875-11.65625c3.585938-1.476562 5.703125-5.402344 4.566407-9.09375zm0 0"/><path d="m303.925781 83.167969 21.613281-21.507813c2.839844-2.828125 3.257813-7.480468.570313-10.457031-2.871094-3.167969-7.78125-3.265625-10.777344-.285156l-21.90625 21.800781c-2.847656 2.832031-2.773437 7.398438.074219 10.230469.046875.046875.097656.097656.144531.144531 2.847657 2.835938 7.433594 2.910156 10.28125.074219zm0 0"/><path d="m261.359375 51.34375 11.769531-28.257812c1.355469-3.257813.375-7.128907-2.5625-9.101563-4.039062-2.714844-9.3125-.980469-11.078125 3.257813l-11.847656 28.445312c-1.542969 3.707031.285156 7.90625 4.015625 9.429688.0625.027343.125.050781.1875.078124 3.71875 1.527344 7.976562-.152343 9.515625-3.851562zm0 0"/><path d="m202.308594 45.375h.085937c4.035157.003906 7.339844-3.167969 7.339844-7.183594v-30.484375c0-3.859375-2.835937-7.304687-6.695313-7.6718748-4.429687-.4218752-8.15625 3.0351558-8.15625 7.3554688v30.800781c0 4.011719 3.304688 7.1875 7.339844 7.179688.027344.003906.054688.003906.085938.003906zm0 0"/></g><path d="m73.222656 173.835938c0-.023438 0-.050782 0-.074219.003906-4.015625-3.183594-7.304688-7.214844-7.304688h-30.78125c-3.875 0-7.339843 2.824219-7.707031 6.664063-.421875 4.40625 3.050781 8.117187 7.390625 8.117187h31.097656c4.035157 0 7.21875-3.289062 7.21875-7.304687-.003906-.035156-.003906-.066406-.003906-.097656zm0 0" fill="#ffd551"/><path d="m73.539062 218.949219-28.269531 11.660156c-3.617187 1.492187-5.738281 5.476563-4.542969 9.191406 1.03125 3.195313 3.96875 5.152344 7.078126 5.152344.949218 0 1.910156-.179687 2.839843-.5625l28.578125-11.785156c3.71875-1.53125 5.40625-5.769531 3.871094-9.46875-.023438-.0625-.050781-.125-.074219-.1875-1.535156-3.714844-5.753906-5.535157-9.480469-4zm0 0" fill="#ffd551"/><path d="m152.796875 55.183594c.0625-.023438.125-.046875.1875-.074219 3.730469-1.523437 5.5625-5.722656 4.019531-9.433594l-11.726562-28.152343c-1.484375-3.566407-5.429688-5.667969-9.136719-4.535157-4.25 1.300781-6.363281 5.910157-4.703125 9.902344l11.847656 28.441406c1.539063 3.695313 5.796875 5.375 9.511719 3.851563zm0 0" fill="#ffd551"/><path d="m110.910156 83.15625c.046875-.050781.097656-.097656.144532-.144531 2.847656-2.832031 2.914062-7.394531.070312-10.226563l-21.835938-21.730468c-2.507812-2.492188-6.480468-3.066407-9.433593-1.117188-4.058594 2.683594-4.460938 8.191406-1.203125 11.429688l21.96875 21.867187c2.851562 2.835937 7.445312 2.761719 10.289062-.078125zm0 0" fill="#ffd551"/><path d="m83.078125 124.574219c1.53125-3.699219-.15625-7.933594-3.875-9.46875l-28.574219-11.769531c-4.007812-1.65625-8.644531.449218-9.945312 4.683593-1.132813 3.695313.984375 7.617188 4.570312 9.09375l28.269532 11.648438c3.730468 1.535156 7.945312-.289063 9.476562-4 .023438-.0625.050781-.125.078125-.1875zm0 0" fill="#ffd551"/><path d="m87.65625 335.644531h9.953125v118.25h-9.953125zm0 0" fill="#ccc033"/><path d="m87.65625 335.644531h6.328125v118.25h-6.328125zm0 0" fill="#99af17"/><path d="m97.535156 367.242188c54.851563-4.921876 50.28125-46.886719 47.476563-59.996094-.472657-2.214844-3.355469-3.136719-6.355469-2.035156-18.125 6.648437-74.429688 30.410156-46.742188 60.300781 1.210938 1.308593 3.277344 1.9375 5.621094 1.730469zm0 0" fill="#ccc033"/><path d="m145.664062 310.75c-.210937-1.320312-.4375-2.496094-.652343-3.503906-.472657-2.214844-3.355469-3.136719-6.355469-2.035156-8.234375 3.019531-24.347656 9.570312-36.882812 18.625-.230469.164062-.453126.328124-.679688.496093-.027344.019531-.058594.042969-.089844.066407-.195312.144531-.390625.289062-.582031.4375-.042969.03125-.085937.0625-.128906.09375-.179688.136718-.359375.273437-.539063.410156-.050781.039062-.097656.078125-.148437.117187-.171875.132813-.34375.265625-.511719.398438-.050781.039062-.101562.082031-.15625.121093-.167969.132813-.335938.269532-.503906.402344-.050782.039063-.097656.078125-.148438.121094-.167968.136719-.339844.277344-.507812.414062-.042969.035157-.085938.074219-.132813.109376-.175781.148437-.351562.296874-.527343.445312-.035157.027344-.070313.054688-.101563.085938-.199219.171874-.402344.34375-.601563.515624-.003906.003907-.007812.007813-.011718.011719-.628906.546875-1.234375 1.101563-1.828125 1.660157-.023438.023437-.046875.046874-.070313.070312-.167968.15625-.332031.316406-.496094.476562-.042968.042969-.085937.082032-.128906.125-.144531.140626-.289062.285157-.429687.429688-.050781.050781-.097657.097656-.148438.148438-.132812.136718-.265625.269531-.394531.40625-.054688.054687-.109375.113281-.160156.167968-.128906.132813-.25.265625-.375.398438-.054688.058594-.109375.117187-.164063.175781-.121093.128906-.242187.265625-.359375.394531-.054687.058594-.105468.117188-.15625.171875-.121094.136719-.238281.273438-.359375.410157-.046875.058593-.09375.113281-.144531.167968-.121094.144532-.246094.289063-.363281.433594-.042969.046875-.082031.09375-.121094.140625-.136719.167969-.273437.335937-.410156.503906-.019531.027344-.039063.050781-.058594.074219-.316406.398438-.625.800781-.917969 1.203125-.007812.007813-.011718.011719-.015625.019531-.136719.1875-.273437.378906-.410156.570313-.03125.046875-.0625.09375-.09375.140625-.105469.152344-.207031.300781-.308594.453125-.042969.0625-.082031.121093-.121093.183593-.09375.136719-.183594.277344-.269532.417969-.042968.066407-.085937.136719-.128906.203125-.085938.132813-.167969.265625-.246094.398438-.042968.074218-.085937.144531-.128906.21875-.078125.132812-.152344.261718-.226562.394531-.042969.074219-.085938.148437-.125.222656-.074219.132813-.144532.261719-.214844.394531-.039063.074219-.082032.148438-.117188.222657-.070312.132812-.140625.269531-.207031.402343-.035156.070313-.074219.140626-.105469.214844-.070312.140625-.136718.285156-.203125.425782-.03125.066406-.0625.132812-.09375.195312-.070312.160156-.140625.316406-.207031.476562-.019531.050782-.046875.101563-.066406.148438-.175782.421875-.339844.84375-.492188 1.273438-.015625.039062-.027344.078124-.042968.121093-.058594.171875-.117188.34375-.171876.511719-.023437.070312-.039062.136719-.0625.203125-.042968.144531-.085937.292969-.128906.4375-.023437.078125-.042968.15625-.0625.230469-.039062.136718-.074218.273437-.109375.410156-.019531.085938-.039062.167969-.0625.253906-.027343.132813-.058593.265625-.089843.394532-.015626.085937-.035157.175781-.050782.261718-.027344.128906-.050781.257813-.074218.390625-.015626.089844-.03125.175781-.046876.265625-.023437.128906-.039062.261719-.058593.390625-.015625.089844-.027344.175781-.039063.265625-.015625.132813-.03125.265625-.042968.398438-.011719.085937-.019532.171875-.027344.257812-.011719.140625-.023438.28125-.03125.421875-.007813.078125-.011719.160157-.015625.242188-.007813.15625-.015625.3125-.019531.464843-.003907.066407-.007813.132813-.007813.199219-.007813.445313 0 .894531.027344 1.34375.003906.0625.007812.125.011719.1875.011718.160157.023437.320313.035156.484375.007812.082032.019531.164063.027344.25.015624.140625.03125.285156.046874.425782.011719.089843.027344.183593.039063.273437.019531.136719.039063.273437.0625.410156.015625.09375.035156.191407.050781.285157.023438.132812.050782.265624.074219.402343.019531.097657.039063.191407.0625.289063.03125.132812.058594.265625.09375.398437.023437.097657.046875.195313.074219.292969.03125.136719.070312.269531.105468.402344.027344.097656.054688.195312.085938.292968.039062.132813.082031.269532.125.40625.03125.097657.058594.191407.09375.289063.046875.140625.097656.28125.148438.421875.035156.09375.066406.183594.101562.273438.054688.160156.121094.316406.183594.472656.03125.078125.0625.152344.089844.230468.09375.226563.191406.453126.296874.679688.003907.007812.007813.015625.007813.019531.105469.234375.21875.472657.335937.707031.039063.078126.078126.152344.117188.226563.082031.160156.160156.320313.246094.480469.050781.09375.101562.183594.152344.277344.082031.144531.160156.289062.246093.4375.054688.097656.113281.195312.171875.292968.082032.140625.164063.28125.25.417969.066406.105469.128906.207031.195313.308594.085937.136719.171875.273437.261719.410156.070312.105469.140624.207031.210937.3125.089844.136719.183594.273437.277344.410156.074219.105469.148437.207031.222656.3125.097656.140625.199219.277344.300781.414063.074219.105468.152344.207031.230469.3125.105469.140625.21875.28125.328125.421875.078125.101562.15625.203125.238281.304687.117188.148438.238281.292969.359375.441406.082032.09375.15625.191407.238282.289063.140624.160156.277343.324219.421874.488281.070313.078125.136719.160156.207032.242188.214844.242187.4375.488281.664062.734375.105469.117187.222656.222656.34375.328125.050782.046875.109375.089844.167969.136718.066406.046876.128906.097657.195313.140626.078124.058593.15625.113281.238281.164062.035156.023438.074219.042969.113281.066406.253906.152344.523438.289063.808594.40625 1.246094.125 2.511718.234375 3.8125.324219.582031.039063 1.144531.027344 1.6875-.015625.175781-.019531.359375-.039062.535156-.054688 1.84375-.25 3.40625-.980468 4.429688-2.125 11.613281-13.070312 10.261718-24.929687 2.761718-35.097656 12.535156-9.046875 28.632813-15.597656 36.867188-18.617187.613281-.222657 1.214844-.355469 1.792968-.417969zm0 0" fill="#99af17"/><path d="m87.789062 368.859375c-64.703124-10.789063-55.457031-60.21875-50.929687-75.539063.761719-2.585937 4.269531-3.417968 7.734375-1.839843 20.921875 9.53125 85.628906 42.828125 50.027344 75.835937-1.558594 1.441406-4.066406 2.003906-6.832032 1.542969zm0 0" fill="#eacf32"/><path d="m48.792969 293.441406c-1.535157-.734375-2.945313-1.390625-4.199219-1.960937-3.464844-1.578125-6.972656-.746094-7.734375 1.839843-4.523437 15.320313-13.769531 64.75 50.929687 75.539063 2.765626.464844 5.277344-.101563 6.832032-1.546875 1.484375-1.378906 2.792968-2.753906 3.941406-4.132812-55.835938-10.503907-53.953125-50.832032-49.769531-69.738282zm0 0" fill="#ccc033"/><path d="m93.269531 360.941406c-1.140625 0-2.273437-.484375-3.066406-1.425781l-17.007813-20.246094c-1.421874-1.691406-1.203124-4.214843.488282-5.636719 1.691406-1.417968 4.21875-1.203124 5.636718.488282l17.011719 20.25c1.417969 1.691406 1.199219 4.214844-.492187 5.636718-.75.628907-1.664063.933594-2.570313.933594zm0 0" fill="#fcda4f"/><path d="m363.808594 453.75h-201.882813c.414063-1.5.648438-3.074219.648438-4.703125 0-8.597656-6.148438-15.761719-14.304688-17.382813.773438-1.984374 1.199219-4.144531 1.199219-6.402343 0-9.789063-7.972656-17.730469-17.8125-17.730469-.871094 0-1.722656.066406-2.558594.1875-1.105468-8.738281-8.589844-15.5-17.671875-15.5-7.207031 0-13.410156 4.261719-16.214843 10.386719-2.804688-6.125-9.007813-10.386719-16.210938-10.386719-7.308594 0-13.585938 4.378906-16.332031 10.644531-2.292969-1.066406-4.847657-1.667969-7.546875-1.667969-9.839844 0-17.816406 7.941407-17.816406 17.730469 0 .925781.074218 1.835938.210937 2.726563-.574219.496094-1.140625 1-1.695313 1.511718-8.699218 1.171876-15.402343 8.585938-15.402343 17.5625 0 .945313.078125 1.871094.21875 2.777344-.585938 1.207032-1.128907 2.433594-1.636719 3.671875-.390625-.023437-.785156-.039062-1.179688-.039062-9.835937 0-17.81640575 7.9375-17.81640575 17.726562 0 6.410157 3.41796875 12.023438 8.53906275 15.136719h355.273437c7.28125 0 13.1875-5.878906 13.1875-13.125-.003906-7.25-5.910156-13.125-13.195312-13.125zm0 0" fill="#bf6c0d"/><path d="m8.535156 480h16.773438c0-.007812 0-.011719 0-.019531 0-9.792969 7.976562-17.730469 17.816406-17.730469.398438 0 .789062.015625 1.179688.039062.511718-1.238281 1.054687-2.464843 1.640624-3.671874-.144531-.902344-.222656-1.832032-.222656-2.777344 0-8.976563 6.707032-16.390625 15.402344-17.5625.558594-.511719 1.125-1.015625 1.699219-1.511719-.140625-.886719-.210938-1.796875-.210938-2.726563 0-9.789062 7.976563-17.726562 17.8125-17.726562 2.699219 0 5.253907.601562 7.546875 1.667969 2.746094-6.265625 9.023438-10.644531 16.332032-10.644531 7.207031 0 13.410156 4.261718 16.214843 10.386718 2.378907-5.195312 7.203125-9.039062 13.011719-10.089844-.617188-.0625-1.246094-.097656-1.878906-.097656-.871094 0-1.722656.066406-2.558594.1875-1.105469-8.738281-8.589844-15.5-17.671875-15.5-7.207031 0-13.410156 4.261719-16.214844 10.386719-2.804687-6.125-9.007812-10.386719-16.210937-10.386719-7.308594 0-13.585938 4.378906-16.332032 10.644532-2.292968-1.066407-4.847656-1.667969-7.546874-1.667969-9.839844 0-17.816407 7.941406-17.816407 17.730469 0 .925781.074219 1.835937.210938 2.722656-.574219.496094-1.140625 1-1.695313 1.515625-8.699218 1.171875-15.402344 8.585937-15.402344 17.5625 0 .945312.078126 1.871093.21875 2.777343-.585937 1.207032-1.128906 2.429688-1.636718 3.671876-.390625-.027344-.785156-.042969-1.179688-.042969-9.839844 0-17.816406 7.9375-17.816406 17.730469 0 6.40625 3.417969 12.019531 8.535156 15.132812zm0 0" fill="#a56021"/><path d="m303.546875 173.828125c0-55.640625-45.328125-100.746094-101.238281-100.746094-55.914063 0-101.238282 45.105469-101.238282 100.746094s45.324219 100.75 101.238282 100.75c55.910156 0 101.238281-45.109375 101.238281-100.75zm0 0" fill="#ffdf74"/><path d="m285.558594 179.828125c-3.3125 0-6-2.683594-6-6 0-33.390625-21.464844-62.765625-53.410156-73.101563-3.152344-1.023437-4.882813-4.40625-3.863282-7.558593 1.019532-3.152344 4.40625-4.878907 7.558594-3.859375 36.914062 11.941406 61.714844 45.910156 61.714844 84.519531 0 3.3125-2.6875 6-6 6zm0 0" fill="#fce575"/><path d="m161.027344 173.828125c0-45.171875 30.023437-83.492187 71.257812-96.238281-9.476562-2.929688-19.542968-4.507813-29.976562-4.507813-55.820313 0-101.238282 45.195313-101.238282 100.746094 0 55.554687 45.414063 100.75 101.238282 100.75 10.433594 0 20.5-1.582031 29.976562-4.511719-41.234375-12.746094-71.257812-51.066406-71.257812-96.238281zm0 0" fill="#ffd551"/><path d="m249.785156 240.890625c0 9.664063-7.832031 17.5-17.5 17.5-9.664062 0-17.5-7.835937-17.5-17.5 0-9.667969 7.835938-17.5 17.5-17.5 9.667969 0 17.5 7.832031 17.5 17.5zm0 0" fill="#ffd551"/><path d="m203.875 339.972656v-30.507812c0-2.367188 1.15625-4.4375 2.929688-5.738282-1.230469-.90625-2.757813-1.445312-4.410157-1.445312-.027343 0-.058593 0-.085937 0s-.058594 0-.085938 0c-4.035156 0-7.339844 3.167969-7.339844 7.183594v30.507812c0 3.859375 2.835938 7.304688 6.695313 7.671875 1.988281.1875 3.832031-.410156 5.265625-1.511719-1.824219-1.433593-2.96875-3.710937-2.96875-6.160156zm0 0" fill="#ffd551"/><path d="m203.875 38.191406v-30.800781c0-2.382813 1.136719-4.496094 2.894531-5.84375-1.050781-.828125-2.320312-1.378906-3.730469-1.5117188-4.429687-.4218752-8.15625 3.0312498-8.15625 7.3554688v30.800781c0 4.011719 3.304688 7.1875 7.339844 7.179688h.085938.085937c1.652344.003906 3.179688-.535156 4.410157-1.441406-1.773438-1.300782-2.929688-3.367188-2.929688-5.738282zm0 0" fill="#ffd551"/><path d="m104.859375 454.671875c0 9.667969-7.832031 17.5-17.5 17.5-9.664063 0-17.5-7.832031-17.5-17.5 0-9.664063 7.835937-17.5 17.5-17.5 9.667969 0 17.5 7.835937 17.5 17.5zm0 0" fill="#a56021"/></svg>