<svg height="512pt" viewBox="-8 0 512 512" width="512pt" xmlns="http://www.w3.org/2000/svg"><path d="m356.945312 329.777344c0 96.496094-78.226562 174.71875-174.722656 174.71875s-174.71875-78.222656-174.71875-174.71875 174.71875-317.675782 174.71875-317.675782 174.722656 221.179688 174.722656 317.675782zm0 0" fill="#96d1f3"/><path d="m372.71875 12.105469s-58.617188 74.210937-92.183594 139.808593c39.742188 63.289063 76.410156 133.660157 76.410156 177.863282 0 1.863281-.039062 3.714844-.097656 5.5625 5.1875.714844 10.484375 1.09375 15.871094 1.09375 63.558594 0 115.085938-51.527344 115.085938-115.085938s-115.085938-209.242187-115.085938-209.242187zm0 0" fill="#96d1f3"/><path d="m37.515625 329.777344c0-79.089844 117.367187-241.9375 159.710937-298.113282-9.316406-12.359374-15.003906-19.5625-15.003906-19.5625s-174.71875 221.179688-174.71875 317.675782 78.222656 174.71875 174.71875 174.71875c5.054688 0 10.058594-.226563 15.003906-.648438-89.46875-7.609375-159.710937-82.628906-159.710937-174.070312zm0 0" fill="#3ca6e6"/><path d="m386.859375 335.335938c.058594-1.847657.097656-3.695313.097656-5.558594 0-44.203125-36.671875-114.574219-76.410156-177.863282 22.929687-44.808593 57.539063-93.628906 77.179687-120.078124-9.109374-12.265626-15.007812-19.734376-15.007812-19.734376s-58.617188 74.214844-92.179688 139.8125c39.738282 63.289063 76.40625 133.65625 76.40625 177.863282 0 1.859375-.039062 3.710937-.097656 5.558594 5.191406.71875 10.488282 1.097656 15.871094 1.097656 5.109375 0 10.136719-.339844 15.070312-.984375-.3125-.039063-.625-.070313-.929687-.113281zm0 0" fill="#3ca6e6"/><path d="m206.199219 463.144531h-15.003907v-15.003906h15.003907zm-25.007813 0h-15.003906v-15.003906h15.003906zm0 0" fill="#fff"/><path d="m182.222656 0c-53.144531 67.277344-182.222656 244.191406-182.222656 329.777344 0 100.476562 81.746094 182.222656 182.222656 182.222656 100.480469 0 182.222656-81.746094 182.222656-182.222656 0-85.585938-129.078124-262.503906-182.222656-329.777344zm0 496.996094c-92.203125 0-167.21875-75.015625-167.21875-167.21875 0-82.933594 136.890625-265.910156 167.21875-305.425782 30.328125 39.511719 167.21875 222.472657 167.21875 305.425782 0 92.203125-75.015625 167.21875-167.21875 167.21875zm0 0"/><path d="m334.4375 329.777344c0-24.433594-14.488281-75.914063-83.492188-182.398438l-12.59375 8.160156c73.179688 112.921876 81.078126 159.46875 81.078126 174.238282zm0 0"/><path d="m465.296875 221.347656c0-9.914062-5.234375-41.054687-53.679687-115.835937l-12.59375 8.160156c48.792968 75.316406 51.265624 102.910156 51.265624 107.675781zm0 0"/><path d="m378.605469 7.453125-5.886719-7.453125c-34.839844 44.109375-64.417969 88.03125-83.527344 120.652344l12.945313 7.585937c25.65625-43.796875 57.605469-86.835937 70.582031-103.855469 30.433594 39.890626 107.582031 147.359376 107.582031 196.964844 0 55.484375-41.570312 101.5-96.695312 107.035156l1.5 14.933594c62.164062-6.246094 110.199219-58.722656 110.199219-121.96875 0-65.414062-111.933594-207.863281-116.699219-213.894531zm0 0"/></svg>