<svg height="512pt" viewBox="0 0 512 512" width="512pt" xmlns="http://www.w3.org/2000/svg" xmlns:xlink="http://www.w3.org/1999/xlink"><linearGradient id="a" gradientUnits="userSpaceOnUse" x1="0" x2="512" y1="256" y2="256"><stop offset="0" stop-color="#00f38d"/><stop offset="1" stop-color="#009eff"/></linearGradient><path d="m512 256c0 141.386719-114.613281 256-256 256s-256-114.613281-256-256 114.613281-256 256-256 256 114.613281 256 256zm0 0" fill="url(#a)"/><path d="m393.335938 276.679688v-41.359376c20.125-6.378906 34.753906-25.230468 34.753906-47.4375 0-27.433593-22.320313-49.753906-49.753906-49.753906-14.226563 0-27.066407 6.007813-36.144532 15.613282l-36.925781-20.136719c.3125-2.253907.488281-4.550781.488281-6.890625 0-27.4375-22.320312-49.753906-49.753906-49.753906s-49.753906 22.316406-49.753906 49.753906c0 2.328125.171875 4.613281.484375 6.859375l-37.023438 20.0625c-9.070312-9.542969-21.867187-15.511719-36.042969-15.511719-27.433593 0-49.753906 22.320312-49.753906 49.757812 0 21.691407 13.960938 40.175782 33.363282 46.964844v42.300782c-19.402344 6.792968-33.363282 25.277343-33.363282 46.96875 0 27.433593 22.320313 49.753906 49.753906 49.753906 14.15625 0 26.9375-5.949219 36.003907-15.46875l37.027343 20.28125c-.285156 2.160156-.449218 4.363281-.449218 6.601562 0 27.4375 22.320312 49.753906 49.753906 49.753906s49.753906-22.316406 49.753906-49.753906c0-2.375-.179687-4.710937-.5-7l36.609375-20.375c9.089844 9.808594 22.074219 15.960938 36.472657 15.960938 27.433593 0 49.753906-22.316406 49.753906-49.753906 0-22.207032-14.628906-41.058594-34.753906-47.4375zm-47.164063 9.523437-58.1875-30.898437 57.191406-30.367188c5.191407 4.652344 11.359375 8.230469 18.160157 10.382812v41.359376c-6.371094 2.019531-12.1875 5.292968-17.164063 9.523437zm-180.34375 0c-5.335937-4.535156-11.640625-7.960937-18.550781-9.929687v-40.542969c7.34375-2.09375 14.003906-5.828125 19.546875-10.792969l57.191406 30.367188zm212.507813-118.074219c10.890624 0 19.753906 8.859375 19.753906 19.753906 0 10.890626-8.863282 19.753907-19.753906 19.753907-10.894532 0-19.753907-8.863281-19.753907-19.753907 0-10.894531 8.859375-19.753906 19.753907-19.753906zm-49.238282 12.640625c-.335937 2.324219-.515625 4.699219-.515625 7.113281 0 3.855469.453125 7.605469 1.289063 11.214844l-58.871094 31.257813v-56.203125c8.226562-2.605469 15.523438-7.300782 21.289062-13.453125zm-73.097656-73.808593c10.894531 0 19.753906 8.859374 19.753906 19.753906 0 10.890625-8.859375 19.753906-19.753906 19.753906s-19.753906-8.863281-19.753906-19.753906c0-10.894532 8.859375-19.753906 19.753906-19.753906zm-36.316406 53.714843c5.769531 6.164063 13.078125 10.867188 21.316406 13.476563v56.203125l-58.871094-31.257813c.835938-3.609375 1.292969-7.359375 1.292969-11.214844 0-2.46875-.191406-4.894531-.539063-7.265624zm-86.019532 7.453125c10.894532 0 19.757813 8.859375 19.757813 19.753906 0 10.890626-8.863281 19.753907-19.757813 19.753907-10.890624 0-19.753906-8.863281-19.753906-19.753907 0-10.894531 8.863282-19.753906 19.753906-19.753906zm0 175.742188c-10.890624 0-19.753906-8.859375-19.753906-19.753906 0-10.890626 8.863282-19.753907 19.753906-19.753907 10.894532 0 19.757813 8.863281 19.757813 19.753907 0 10.894531-8.863281 19.753906-19.757813 19.753906zm49.214844-12.4375c.351563-2.386719.542969-4.828125.542969-7.316406 0-4.296876-.550781-8.46875-1.582031-12.453126l59.160156-31.410156v57.59375c-8.316406 2.632813-15.6875 7.398438-21.480469 13.652344zm73.121094 73.605468c-10.894531 0-19.753906-8.859374-19.753906-19.753906 0-10.890625 8.859375-19.753906 19.753906-19.753906s19.753906 8.863281 19.753906 19.753906c0 10.894532-8.859375 19.753906-19.753906 19.753906zm36.207031-53.828124c-5.753906-6.109376-13.019531-10.769532-21.207031-13.363282v-57.59375l59.160156 31.410156c-1.03125 3.984376-1.578125 8.15625-1.578125 12.453126 0 2.238281.160157 4.441406.449219 6.601562zm86.128907-7.339844c-10.894532 0-19.753907-8.859375-19.753907-19.753906 0-10.890626 8.859375-19.753907 19.753907-19.753907 10.890624 0 19.753906 8.863281 19.753906 19.753907 0 10.894531-8.863282 19.753906-19.753906 19.753906zm0 0" fill="#fff"/></svg>