<?xml version="1.0" encoding="iso-8859-1"?>
<!-- Generator: Adobe Illustrator 19.0.0, SVG Export Plug-In . SVG Version: 6.00 Build 0)  -->
<svg version="1.1" id="Layer_1" xmlns="http://www.w3.org/2000/svg" xmlns:xlink="http://www.w3.org/1999/xlink" x="0px" y="0px"
	 viewBox="0 0 512 512" style="enable-background:new 0 0 512 512;" xml:space="preserve">
<path style="fill:#439EE8;" d="M285.929,414.731h-59.858c-4.428,0-8.017,3.589-8.017,8.017v81.236c0,4.427,3.588,8.017,8.017,8.017
	h59.858c4.428,0,8.017-3.589,8.017-8.017v-81.236C293.946,418.32,290.357,414.731,285.929,414.731z"/>
<path style="fill:#5293C4;" d="M293.946,444.125v-21.378c0-4.427-3.589-8.017-8.017-8.017h-40.618h-19.24
	c-4.427,0-8.017,3.589-8.017,8.017v21.378v59.858c0,4.427,3.589,8.017,8.017,8.017h19.24c-4.428,0-8.017-3.589-8.017-8.017v-56.117
	c0-2.066,1.675-3.741,3.741-3.741H293.946z"/>
<path style="fill:#5CC4E0;" d="M379.992,0H132.008c-4.427,0-8.017,3.589-8.017,8.017v226.607c0,2.379,1.057,4.635,2.884,6.158
	l72.154,60.127c1.219,1.015,1.923,2.519,1.923,4.106v117.733c0,4.427,3.589,8.017,8.017,8.017h94.063
	c4.427,0,8.017-3.589,8.017-8.017V305.014c0-1.586,0.704-3.09,1.923-4.106l72.154-60.127c1.828-1.523,2.884-3.779,2.884-6.158V8.017
	C388.008,3.589,384.419,0,379.992,0z"/>
<path style="fill:#439EE8;" d="M221.261,422.747V305.014c0-1.586-0.704-3.09-1.923-4.106l-72.154-60.127
	c-1.828-1.523-2.884-3.78-2.884-6.159V8.017c0-4.427,3.588-8.017,8.017-8.017h-20.309c-4.427,0-8.017,3.589-8.017,8.017v226.605
	c0,2.379,1.056,4.636,2.884,6.159l72.154,60.127c1.219,1.015,1.923,2.519,1.923,4.106v117.733c0,4.427,3.589,8.017,8.017,8.017
	h20.309C224.849,430.764,221.261,427.175,221.261,422.747z"/>
<g>
	<path style="fill:#BEE7F3;" d="M259.207,33.136h-7.482c-4.428,0-8.017-3.589-8.017-8.017s3.588-8.017,8.017-8.017h7.482
		c4.428,0,8.017,3.589,8.017,8.017S263.635,33.136,259.207,33.136z"/>
	<path style="fill:#BEE7F3;" d="M296.618,33.136h-7.482c-4.428,0-8.017-3.589-8.017-8.017s3.588-8.017,8.017-8.017h7.482
		c4.428,0,8.017,3.589,8.017,8.017S301.046,33.136,296.618,33.136z"/>
	<path style="fill:#BEE7F3;" d="M334.029,33.136h-7.482c-4.428,0-8.017-3.589-8.017-8.017s3.588-8.017,8.017-8.017h7.482
		c4.428,0,8.017,3.589,8.017,8.017S338.458,33.136,334.029,33.136z"/>
	<path style="fill:#BEE7F3;" d="M222.864,33.136h-7.482c-4.428,0-8.017-3.589-8.017-8.017s3.588-8.017,8.017-8.017h7.482
		c4.428,0,8.017,3.589,8.017,8.017S227.293,33.136,222.864,33.136z"/>
	<path style="fill:#BEE7F3;" d="M185.453,33.136h-7.482c-4.428,0-8.017-3.589-8.017-8.017s3.588-8.017,8.017-8.017h7.482
		c4.428,0,8.017,3.589,8.017,8.017S189.881,33.136,185.453,33.136z"/>
</g>
<path style="fill:#5293C4;" d="M345.787,42.756H166.213c-4.428,0-8.017,3.589-8.017,8.017v149.645c0,4.427,3.588,8.017,8.017,8.017
	h179.574c4.428,0,8.017-3.589,8.017-8.017V50.772C353.804,46.345,350.215,42.756,345.787,42.756L345.787,42.756z"/>
<path style="fill:#E0DDDF;" d="M174.23,188.66V62.53c0-2.066,1.675-3.741,3.741-3.741h156.058c2.066,0,3.741,1.675,3.741,3.741
	V188.66c0,2.066-1.675,3.741-3.741,3.741H177.971C175.905,192.401,174.23,190.726,174.23,188.66z"/>
<path style="fill:#F9F8F9;" d="M184.384,185.453h142.163c2.066,0,3.741-1.675,3.741-3.741V69.478c0-2.066-1.675-3.741-3.741-3.741
	H184.384c-2.066,0-3.741,1.675-3.741,3.741v112.234C180.643,183.778,182.318,185.453,184.384,185.453z"/>
<g>
	<path style="fill:#FF675C;" d="M238.898,76.96h-42.756c-4.428,0-8.017,3.589-8.017,8.017v81.236c0,4.427,3.588,8.017,8.017,8.017
		s8.017-3.589,8.017-8.017v-34.739h34.739c4.428,0,8.017-3.589,8.017-8.017v-38.48C246.914,80.55,243.326,76.96,238.898,76.96z
		 M230.881,115.441h-26.722V92.994h26.722V115.441z"/>
	<path style="fill:#FF675C;" d="M315.858,76.96c-4.428,0-8.017,3.589-8.017,8.017v30.463h-35.273V84.977
		c0-4.427-3.588-8.017-8.017-8.017s-8.017,3.589-8.017,8.017v81.236c0,4.427,3.588,8.017,8.017,8.017s8.017-3.589,8.017-8.017
		v-34.739h35.273v34.739c0,4.427,3.588,8.017,8.017,8.017c4.428,0,8.017-3.589,8.017-8.017V84.977
		C323.875,80.55,320.286,76.96,315.858,76.96z"/>
</g>
<path style="fill:#F78B4F;" d="M215.382,221.795c-15.03,0-27.257,12.228-27.257,27.257c0,15.03,12.227,27.257,27.257,27.257
	c15.03,0,27.257-12.227,27.257-27.257C242.639,234.024,230.412,221.795,215.382,221.795z"/>
<path style="fill:#FBEFA5;" d="M215.382,230.347c10.315,0,18.706,8.391,18.706,18.706c0,10.315-8.391,18.706-18.706,18.706
	s-18.706-8.391-18.706-18.706C196.676,238.737,205.067,230.347,215.382,230.347 M215.382,221.795
	c-15.03,0-27.257,12.228-27.257,27.257c0,15.03,12.227,27.257,27.257,27.257c15.03,0,27.257-12.227,27.257-27.257
	C242.639,234.024,230.412,221.795,215.382,221.795L215.382,221.795z"/>
<path style="fill:#F78B4F;" d="M296.618,221.795c-15.029,0-27.257,12.228-27.257,27.257c0,15.03,12.228,27.257,27.257,27.257
	c15.029,0,27.257-12.227,27.257-27.257C323.875,234.024,311.647,221.795,296.618,221.795z"/>
<path style="fill:#FBEFA5;" d="M296.618,230.347c10.315,0,18.706,8.391,18.706,18.706c0,10.315-8.391,18.706-18.706,18.706
	s-18.706-8.391-18.706-18.706C277.912,238.737,286.303,230.347,296.618,230.347 M296.618,221.795
	c-15.03,0-27.257,12.228-27.257,27.257c0,15.03,12.227,27.257,27.257,27.257c15.03,0,27.257-12.227,27.257-27.257
	C323.875,234.024,311.648,221.795,296.618,221.795L296.618,221.795z"/>
<g>
</g>
<g>
</g>
<g>
</g>
<g>
</g>
<g>
</g>
<g>
</g>
<g>
</g>
<g>
</g>
<g>
</g>
<g>
</g>
<g>
</g>
<g>
</g>
<g>
</g>
<g>
</g>
<g>
</g>
</svg>
