<svg xmlns="http://www.w3.org/2000/svg" height="512pt" version="1.1" viewBox="-96 0 512 512.00008" width="512pt">
<g id="surface1">
<path d="M 134.28125 7.277344 C 109.796875 -8.464844 48.441406 5.976562 41.523438 7.675781 C 37.394531 8.6875 34.78125 12.753906 35.574219 16.933594 C 36.898438 23.929688 49.222656 85.746094 73.710938 101.488281 C 83.058594 107.5 93.539062 110.371094 103.90625 110.371094 C 122.339844 110.367188 140.414062 101.292969 151.101562 84.671875 C 167.800781 58.699219 160.257812 23.980469 134.28125 7.277344 Z M 134.28125 7.277344 " style=" stroke:none;fill-rule:nonzero;fill:rgb(65.882353%,87.843137%,34.901961%);fill-opacity:1;" />
<path d="M 111.929688 94.359375 C 101.5625 94.359375 91.082031 91.488281 81.730469 85.476562 C 60.710938 71.960938 48.652344 24.492188 44.820312 6.898438 C 43.296875 7.246094 42.171875 7.515625 41.523438 7.675781 C 37.394531 8.6875 34.78125 12.753906 35.574219 16.933594 C 36.898438 23.929688 49.222656 85.746094 73.710938 101.488281 C 83.058594 107.5 93.539062 110.371094 103.90625 110.371094 C 122.339844 110.367188 140.414062 101.292969 151.101562 84.671875 C 153.878906 80.351562 155.96875 75.785156 157.433594 71.105469 C 146.59375 86.160156 129.429688 94.355469 111.929688 94.359375 Z M 111.929688 94.359375 " style=" stroke:none;fill-rule:nonzero;fill:rgb(57.254902%,85.098039%,18.823529%);fill-opacity:1;" />
<path d="M 289.605469 57.214844 C 282.628906 55.789062 220.75 43.785156 196.90625 60.488281 C 171.613281 78.199219 165.445312 113.1875 183.160156 138.480469 C 194.042969 154.019531 211.441406 162.339844 229.113281 162.339844 C 240.203125 162.339844 251.402344 159.058594 261.15625 152.226562 C 285 135.527344 294.875 73.273438 295.921875 66.226562 C 296.546875 62.023438 293.773438 58.0625 289.605469 57.214844 Z M 289.605469 57.214844 " style=" stroke:none;fill-rule:nonzero;fill:rgb(65.882353%,87.843137%,34.901961%);fill-opacity:1;" />
<path d="M 289.605469 57.214844 C 289.515625 57.195312 289.40625 57.171875 289.292969 57.152344 C 285.585938 76.886719 275.4375 120.34375 256.113281 133.878906 C 246.359375 140.710938 235.160156 143.992188 224.066406 143.992188 C 206.398438 143.992188 189 135.671875 178.117188 120.136719 C 176.25 117.472656 174.664062 114.695312 173.324219 111.847656 C 174.222656 121.132812 177.4375 130.3125 183.160156 138.480469 C 194.042969 154.019531 211.441406 162.339844 229.109375 162.339844 C 240.203125 162.339844 251.402344 159.058594 261.15625 152.226562 C 285 135.527344 294.871094 73.273438 295.921875 66.226562 C 296.546875 62.023438 293.773438 58.0625 289.605469 57.214844 Z M 289.605469 57.214844 " style=" stroke:none;fill-rule:nonzero;fill:rgb(57.254902%,85.098039%,18.823529%);fill-opacity:1;" />
<path d="M 263.765625 86.050781 C 262.695312 81.765625 258.359375 79.15625 254.066406 80.230469 C 250.964844 81.003906 195.933594 95.164062 168 127.730469 C 167.910156 98.941406 152.90625 73.257812 124.589844 53.4375 C 103.773438 38.863281 83.167969 32.585938 82.300781 32.328125 C 78.066406 31.058594 73.609375 33.460938 72.339844 37.691406 C 71.070312 41.921875 73.472656 46.382812 77.703125 47.652344 C 78.445312 47.875 152.003906 70.605469 152.003906 127.992188 L 152.003906 223.996094 C 152.003906 228.414062 155.585938 231.996094 160.003906 231.996094 C 164.421875 231.996094 168.003906 228.414062 168.003906 223.996094 L 168.003906 167.992188 C 168.003906 118.902344 257.050781 95.976562 257.949219 95.75 C 262.234375 94.675781 264.839844 90.335938 263.765625 86.050781 Z M 263.765625 86.050781 " style=" stroke:none;fill-rule:nonzero;fill:rgb(87.45098%,90.980392%,50.980392%);fill-opacity:1;" />
<path d="M 294.128906 314.847656 C 292.609375 313.039062 290.367188 311.996094 288.007812 311.996094 L 32 311.996094 C 29.640625 311.996094 27.398438 313.039062 25.878906 314.847656 C 24.359375 316.652344 23.714844 319.039062 24.117188 321.367188 L 56.121094 505.371094 C 56.785156 509.203125 60.113281 512 64 512 L 256.007812 512 C 259.894531 512 263.222656 509.203125 263.886719 505.371094 L 295.890625 321.367188 C 296.292969 319.039062 295.648438 316.652344 294.128906 314.847656 Z M 294.128906 314.847656 " style=" stroke:none;fill-rule:nonzero;fill:rgb(99.215686%,70.980392%,43.921569%);fill-opacity:1;" />
<path d="M 56.121094 353.367188 C 55.28125 348.546875 59.113281 343.996094 64 343.996094 L 291.953125 343.996094 L 295.890625 321.367188 C 296.292969 319.039062 295.648438 316.652344 294.128906 314.847656 C 292.609375 313.039062 290.367188 311.996094 288.007812 311.996094 L 32 311.996094 C 29.640625 311.996094 27.398438 313.039062 25.878906 314.847656 C 24.359375 316.652344 23.714844 319.039062 24.117188 321.367188 L 56.121094 505.371094 C 56.785156 509.203125 60.113281 512 64 512 L 83.707031 512 Z M 56.121094 353.367188 " style=" stroke:none;fill-rule:nonzero;fill:rgb(98.823529%,63.921569%,29.803922%);fill-opacity:1;" />
<path d="M 290.535156 256.40625 C 271.984375 250.222656 255.511719 240.042969 239.582031 230.199219 C 215.550781 215.347656 190.699219 199.992188 160.003906 199.992188 C 129.308594 199.992188 104.457031 215.347656 80.425781 230.199219 C 64.496094 240.042969 48.023438 250.222656 29.472656 256.40625 C 25.75 257.644531 23.476562 261.402344 24.105469 265.277344 C 24.734375 269.148438 28.078125 271.996094 32 271.996094 L 288.007812 271.996094 C 291.929688 271.996094 295.277344 269.148438 295.902344 265.277344 C 296.53125 261.402344 294.257812 257.644531 290.535156 256.40625 Z M 290.535156 256.40625 " style=" stroke:none;fill-rule:nonzero;fill:rgb(55.294118%,49.803922%,52.156863%);fill-opacity:1;" />
<path d="M 56.105469 265.273438 C 55.476562 261.402344 57.75 257.644531 61.46875 256.402344 C 80.023438 250.21875 96.496094 240.042969 112.425781 230.199219 C 132.140625 218.015625 152.410156 205.496094 176.003906 201.394531 C 170.839844 200.492188 165.515625 199.992188 160.003906 199.992188 C 129.304688 199.992188 104.457031 215.347656 80.425781 230.199219 C 64.492188 240.039062 48.023438 250.21875 29.46875 256.402344 C 25.746094 257.644531 23.472656 261.402344 24.105469 265.273438 C 24.730469 269.148438 28.078125 271.996094 32 271.996094 L 64 271.996094 C 60.078125 271.996094 56.730469 269.148438 56.105469 265.273438 Z M 56.105469 265.273438 " style=" stroke:none;fill-rule:nonzero;fill:rgb(49.411765%,43.529412%,45.882353%);fill-opacity:1;" />
<path d="M 312.007812 255.992188 L 8 255.992188 C 3.582031 255.992188 0 259.574219 0 263.996094 L 0 319.996094 C 0 324.414062 3.582031 327.996094 8 327.996094 L 312.007812 327.996094 C 316.425781 327.996094 320.007812 324.414062 320.007812 319.996094 L 320.007812 263.996094 C 320.007812 259.574219 316.425781 255.992188 312.007812 255.992188 Z M 312.007812 255.992188 " style=" stroke:none;fill-rule:nonzero;fill:rgb(99.215686%,70.980392%,43.921569%);fill-opacity:1;" />
<path d="M 165.714844 290.394531 C 162.621094 287.242188 157.382812 287.242188 154.292969 290.394531 C 148.328125 296.472656 96.003906 350.757812 96.003906 384 C 96.003906 419.289062 124.714844 448 160.003906 448 C 195.292969 448 224.003906 419.289062 224.003906 384 C 224.003906 350.757812 171.679688 296.472656 165.714844 290.394531 Z M 165.714844 290.394531 " style=" stroke:none;fill-rule:nonzero;fill:rgb(67.843137%,92.156863%,95.294118%);fill-opacity:1;" />
<path d="M 176.003906 439.964844 C 140.714844 439.964844 112.003906 411.253906 112.003906 375.960938 C 112.003906 348.238281 148.40625 305.871094 163.945312 289.050781 C 160.878906 287.339844 156.851562 287.785156 154.292969 290.394531 C 148.328125 296.472656 96.003906 350.757812 96.003906 384 C 96.003906 419.289062 124.714844 448 160.003906 448 C 173.503906 448 186.03125 443.789062 196.367188 436.625 C 189.964844 438.777344 183.121094 439.964844 176.003906 439.964844 Z M 176.003906 439.964844 " style=" stroke:none;fill-rule:nonzero;fill:rgb(51.764706%,87.843137%,92.941176%);fill-opacity:1;" />
<path d="M 136.003906 415.996094 C 133.957031 415.996094 131.90625 415.214844 130.347656 413.65625 C 127.222656 410.53125 127.222656 405.464844 130.347656 402.339844 L 178.347656 354.339844 C 181.472656 351.214844 186.535156 351.214844 189.660156 354.339844 C 192.785156 357.464844 192.785156 362.527344 189.660156 365.652344 L 141.660156 413.65625 C 140.097656 415.214844 138.050781 415.996094 136.003906 415.996094 Z M 136.003906 415.996094 " style=" stroke:none;fill-rule:nonzero;fill:rgb(94.509804%,93.72549%,94.117647%);fill-opacity:1;" />
<path d="M 183.503906 399.996094 C 183.503906 404.140625 180.144531 407.496094 176.003906 407.496094 C 171.863281 407.496094 168.503906 404.140625 168.503906 399.996094 C 168.503906 395.855469 171.863281 392.496094 176.003906 392.496094 C 180.144531 392.496094 183.503906 395.855469 183.503906 399.996094 Z M 183.503906 399.996094 " style=" stroke:none;fill-rule:nonzero;fill:rgb(94.509804%,93.72549%,94.117647%);fill-opacity:1;" />
<path d="M 152.003906 368.496094 C 152.003906 372.640625 148.644531 375.996094 144.503906 375.996094 C 140.359375 375.996094 137.003906 372.640625 137.003906 368.496094 C 137.003906 364.355469 140.359375 360.996094 144.503906 360.996094 C 148.644531 360.996094 152.003906 364.355469 152.003906 368.496094 Z M 152.003906 368.496094 " style=" stroke:none;fill-rule:nonzero;fill:rgb(94.509804%,93.72549%,94.117647%);fill-opacity:1;" />
</g>
</svg>